<svg xmlns="http://www.w3.org/2000/svg" viewBox="0 0 400 400">
  <!-- Background -->
  <rect width="400" height="400" fill="#f8f9fa"/>
  
  <!-- Title -->
  <text x="200" y="30" text-anchor="middle" font-family="Arial, sans-serif" font-size="16" font-weight="bold" fill="#333">
    1. PROFESSIONAL ASSISTANT
  </text>
  
  <!-- Parrot Body -->
  <ellipse cx="200" cy="220" rx="70" ry="85" fill="#fff5eb"/>
  
  <!-- Wings (coral accents) -->
  <path d="M130 180 Q110 220 135 260" fill="#e94560" opacity="0.9"/>
  <path d="M270 180 Q290 220 265 260" fill="#e94560" opacity="0.9"/>
  
  <!-- Tail (coral) -->
  <path d="M170 295 L200 350 L230 295" fill="#e94560"/>
  
  <!-- Crest feathers (coral) -->
  <path d="M180 140 Q170 110 185 125" fill="#e94560"/>
  <path d="M200 135 Q200 100 200 120" fill="#e94560"/>
  <path d="M220 140 Q230 110 215 125" fill="#e94560"/>
  
  <!-- Head -->
  <circle cx="200" cy="170" r="50" fill="#fff5eb"/>
  
  <!-- Beak -->
  <path d="M185 175 Q200 195 215 175 L200 185 Z" fill="#ffa500"/>
  
  <!-- Captain's Hat -->
  <ellipse cx="200" cy="130" rx="35" ry="15" fill="#1a3a5c"/>
  <rect x="175" y="115" width="50" height="15" fill="#1a3a5c"/>
  <circle cx="200" cy="115" r="8" fill="#ffd700"/>
  
  <!-- Eyes (expressive, knowing) -->
  <ellipse cx="180" cy="165" rx="12" ry="15" fill="white"/>
  <circle cx="182" cy="165" r="6" fill="#333"/>
  <circle cx="184" cy="163" r="2" fill="white"/>
  
  <ellipse cx="220" cy="165" rx="12" ry="15" fill="white"/>
  <circle cx="218" cy="165" r="6" fill="#333"/>
  <circle cx="220" cy="163" r="2" fill="white"/>
  
  <!-- Eyebrow (raised - sarcastic look) -->
  <path d="M170 150 Q180 145 190 152" stroke="#333" stroke-width="2" fill="none"/>
  <path d="M210 152 Q220 145 230 150" stroke="#333" stroke-width="2" fill="none"/>
  
  <!-- Keyboard (perched on) -->
  <rect x="100" y="320" width="200" height="30" fill="#ddd" rx="3"/>
  <rect x="110" y="325" width="15" height="15" fill="#bbb"/>
  <rect x="130" y="325" width="15" height="15" fill="#bbb"/>
  <rect x="150" y="325" width="15" height="15" fill="#bbb"/>
  <rect x="170" y="325" width="100" height="15" fill="#bbb"/>
  
  <!-- Monitor in background -->
  <rect x="280" y="100" width="80" height="60" fill="#333" rx="3"/>
  <rect x="285" y="105" width="70" height="50" fill="#4a9eff"/>
  <text x="320" y="135" text-anchor="middle" font-size="8" fill="white">&lt;/&gt;</text>
  
  <!-- Knowing smirk -->
  <path d="M190 195 Q200 200 210 192" stroke="#333" stroke-width="2" fill="none"/>
  
  <!-- Color swatches -->
  <rect x="20" y="360" width="20" height="20" fill="#fff5eb" stroke="#333"/>
  <rect x="50" y="360" width="20" height="20" fill="#e94560" stroke="#333"/>
  <text x="80" y="375" font-size="10" fill="#333">Brand: #e94560</text>
</svg>